STARTFONT 2.2
FONT -FontForge-Ströbröd-Bold-R-Normal--10-100-75-75-P-50-ISO10646-1
SIZE 10 75 75
FONTBOUNDINGBOX 6 11 0 -2
METRICSSET 2
SWIDTH 400 0
DWIDTH 4 0
SWIDTH1 0 0
DWIDTH1 0 0
VVECTOR 5,8
COMMENT "Generated by fontforge, http://fontforge.sourceforge.net"
COMMENT "CC, Aaron Christianson, Nicolas Mercier"
STARTPROPERTIES 41
FOUNDRY "FontForge"
FAMILY_NAME "Ströbröd"
WEIGHT_NAME "Bold"
SLANT "R"
SETWIDTH_NAME "Normal"
ADD_STYLE_NAME ""
PIXEL_SIZE 10
POINT_SIZE 100
RESOLUTION_X 75
RESOLUTION_Y 75
SPACING "P"
AVERAGE_WIDTH 50
CHARSET_REGISTRY "ISO10646"
CHARSET_ENCODING "1"
FONTNAME_REGISTRY ""
CHARSET_COLLECTIONS "ASCII ISOLatin1Encoding ISO8859-2 ISO8859-9 ISO8859-4 ISO10646-1"
FONT_NAME "Ströbröd-Bold"
FACE_NAME "Ströbröd Bold"
COPYRIGHT "CC, Aaron Christianson, Nicolas Mercier"
FONT_VERSION "001.000"
FONT_ASCENT 8
FONT_DESCENT 2
UNDERLINE_POSITION -1
UNDERLINE_THICKNESS 0
X_HEIGHT 4
CAP_HEIGHT 5
DEFAULT_CHAR 1
RAW_ASCENT 800
RAW_DESCENT 200
NORM_SPACE 6
RELATIVE_WEIGHT 70
RELATIVE_SETWIDTH 50
SUPERSCRIPT_X 0
SUPERSCRIPT_Y 5
SUPERSCRIPT_SIZE 7
SUBSCRIPT_X 0
SUBSCRIPT_Y 1
SUBSCRIPT_SIZE 7
FIGURE_WIDTH 4
AVG_LOWERCASE_WIDTH 40
AVG_UPPERCASE_WIDTH 40
ENDPROPERTIES
CHARS 546
STARTCHAR uni0000.dup1
ENCODING 0
DWIDTH 6 0
BBX 1 1 0 0
BITMAP
00
ENDCHAR
STARTCHAR uni0001
ENCODING 1
DWIDTH 6 0
BBX 1 1 0 0
BITMAP
00
ENDCHAR
STARTCHAR uni0002
ENCODING 2
DWIDTH 6 0
BBX 1 1 0 0
BITMAP
00
ENDCHAR
STARTCHAR uni0003
ENCODING 3
DWIDTH 6 0
BBX 1 1 0 0
BITMAP
00
ENDCHAR
STARTCHAR uni0004
ENCODING 4
DWIDTH 6 0
BBX 1 1 0 0
BITMAP
00
ENDCHAR
STARTCHAR uni0005
ENCODING 5
DWIDTH 6 0
BBX 1 1 0 0
BITMAP
00
ENDCHAR
STARTCHAR uni0006
ENCODING 6
DWIDTH 6 0
BBX 1 1 0 0
BITMAP
00
ENDCHAR
STARTCHAR uni0007
ENCODING 7
DWIDTH 6 0
BBX 1 1 0 0
BITMAP
00
ENDCHAR
STARTCHAR uni0008
ENCODING 8
DWIDTH 6 0
BBX 1 1 0 0
BITMAP
00
ENDCHAR
STARTCHAR uni0009
ENCODING 9
DWIDTH 6 0
BBX 1 1 0 0
BITMAP
00
ENDCHAR
STARTCHAR uni000A
ENCODING 10
DWIDTH 6 0
BBX 1 1 0 0
BITMAP
00
ENDCHAR
STARTCHAR uni000B
ENCODING 11
DWIDTH 6 0
BBX 1 1 0 0
BITMAP
00
ENDCHAR
STARTCHAR uni000C
ENCODING 12
DWIDTH 6 0
BBX 1 1 0 0
BITMAP
00
ENDCHAR
STARTCHAR uni000D
ENCODING 13
DWIDTH 6 0
BBX 1 1 0 0
BITMAP
00
ENDCHAR
STARTCHAR uni000E
ENCODING 14
DWIDTH 6 0
BBX 1 1 0 0
BITMAP
00
ENDCHAR
STARTCHAR uni000F
ENCODING 15
DWIDTH 6 0
BBX 1 1 0 0
BITMAP
00
ENDCHAR
STARTCHAR uni0010
ENCODING 16
DWIDTH 6 0
BBX 1 1 0 0
BITMAP
00
ENDCHAR
STARTCHAR uni0011
ENCODING 17
DWIDTH 6 0
BBX 1 1 0 0
BITMAP
00
ENDCHAR
STARTCHAR uni0012
ENCODING 18
DWIDTH 6 0
BBX 1 1 0 0
BITMAP
00
ENDCHAR
STARTCHAR uni0013
ENCODING 19
DWIDTH 6 0
BBX 1 1 0 0
BITMAP
00
ENDCHAR
STARTCHAR uni0014
ENCODING 20
DWIDTH 6 0
BBX 1 1 0 0
BITMAP
00
ENDCHAR
STARTCHAR uni0015
ENCODING 21
DWIDTH 6 0
BBX 1 1 0 0
BITMAP
00
ENDCHAR
STARTCHAR uni0016
ENCODING 22
DWIDTH 6 0
BBX 1 1 0 0
BITMAP
00
ENDCHAR
STARTCHAR uni0017
ENCODING 23
DWIDTH 6 0
BBX 1 1 0 0
BITMAP
00
ENDCHAR
STARTCHAR uni0018
ENCODING 24
DWIDTH 6 0
BBX 1 1 0 0
BITMAP
00
ENDCHAR
STARTCHAR uni0019
ENCODING 25
DWIDTH 6 0
BBX 1 1 0 0
BITMAP
00
ENDCHAR
STARTCHAR uni001A
ENCODING 26
DWIDTH 6 0
BBX 1 1 0 0
BITMAP
00
ENDCHAR
STARTCHAR uni001B
ENCODING 27
DWIDTH 6 0
BBX 1 1 0 0
BITMAP
00
ENDCHAR
STARTCHAR uni001C
ENCODING 28
DWIDTH 6 0
BBX 1 1 0 0
BITMAP
00
ENDCHAR
STARTCHAR uni001D
ENCODING 29
DWIDTH 6 0
BBX 1 1 0 0
BITMAP
00
ENDCHAR
STARTCHAR uni001E
ENCODING 30
DWIDTH 6 0
BBX 1 1 0 0
BITMAP
00
ENDCHAR
STARTCHAR uni001F
ENCODING 31
DWIDTH 6 0
BBX 1 1 0 0
BITMAP
00
ENDCHAR
STARTCHAR space
ENCODING 32
DWIDTH 6 0
BBX 1 1 0 0
BITMAP
00
ENDCHAR
STARTCHAR exclam
ENCODING 33
DWIDTH 6 0
BBX 2 6 2 0
BITMAP
C0
C0
C0
C0
00
C0
ENDCHAR
STARTCHAR quotedbl
ENCODING 34
DWIDTH 6 0
BBX 4 2 1 5
BITMAP
D0
D0
ENDCHAR
STARTCHAR numbersign
ENCODING 35
DWIDTH 6 0
BBX 6 5 0 1
BITMAP
68
FC
68
FC
68
ENDCHAR
STARTCHAR dollar
ENCODING 36
BBX 6 7 0 -1
BITMAP
30
78
C0
78
0C
78
30
ENDCHAR
STARTCHAR percent
ENCODING 37
BBX 4 5 1 1
BITMAP
90
30
60
C0
90
ENDCHAR
STARTCHAR ampersand
ENCODING 38
DWIDTH 6 0
BBX 5 7 1 0
BITMAP
30
60
60
68
D0
D0
68
ENDCHAR
STARTCHAR quotesingle
ENCODING 39
DWIDTH 6 0
BBX 2 2 2 5
BITMAP
C0
C0
ENDCHAR
STARTCHAR parenleft
ENCODING 40
DWIDTH 6 0
BBX 3 8 1 -1
BITMAP
60
C0
C0
C0
C0
C0
C0
60
ENDCHAR
STARTCHAR parenright
ENCODING 41
DWIDTH 6 0
BBX 3 8 1 -1
BITMAP
C0
60
60
60
60
60
60
C0
ENDCHAR
STARTCHAR asterisk
ENCODING 42
DWIDTH 6 0
BBX 6 5 0 1
BITMAP
30
FC
78
FC
30
ENDCHAR
STARTCHAR plus
ENCODING 43
DWIDTH 6 0
BBX 6 5 0 0
BITMAP
30
30
FC
30
30
ENDCHAR
STARTCHAR comma
ENCODING 44
DWIDTH 6 0
BBX 3 3 1 -1
BITMAP
60
60
C0
ENDCHAR
STARTCHAR hyphen
ENCODING 45
DWIDTH 6 0
BBX 5 1 1 2
BITMAP
F8
ENDCHAR
STARTCHAR period
ENCODING 46
DWIDTH 6 0
BBX 2 2 2 0
BITMAP
C0
C0
ENDCHAR
STARTCHAR slash
ENCODING 47
DWIDTH 6 0
BBX 5 8 1 -1
BITMAP
18
18
30
30
60
60
C0
C0
ENDCHAR
STARTCHAR zero
ENCODING 48
BBX 4 6 1 0
BITMAP
60
D0
F0
D0
D0
60
ENDCHAR
STARTCHAR one
ENCODING 49
BBX 3 6 1 0
BITMAP
60
E0
60
60
60
60
ENDCHAR
STARTCHAR two
ENCODING 50
BBX 4 6 1 0
BITMAP
60
B0
30
60
C0
F0
ENDCHAR
STARTCHAR three
ENCODING 51
BBX 4 6 1 0
BITMAP
F0
30
60
30
30
E0
ENDCHAR
STARTCHAR four
ENCODING 52
BBX 4 6 1 0
BITMAP
10
30
70
B0
F0
30
ENDCHAR
STARTCHAR five
ENCODING 53
BBX 4 6 1 0
BITMAP
F0
C0
E0
30
30
E0
ENDCHAR
STARTCHAR six
ENCODING 54
BBX 4 6 1 0
BITMAP
60
C0
E0
D0
D0
60
ENDCHAR
STARTCHAR seven
ENCODING 55
BBX 4 6 1 0
BITMAP
F0
30
30
60
C0
C0
ENDCHAR
STARTCHAR eight
ENCODING 56
BBX 4 6 1 0
BITMAP
60
D0
60
D0
D0
60
ENDCHAR
STARTCHAR nine
ENCODING 57
BBX 4 6 1 0
BITMAP
60
B0
B0
70
30
60
ENDCHAR
STARTCHAR colon
ENCODING 58
DWIDTH 6 0
BBX 2 3 2 1
BITMAP
C0
00
C0
ENDCHAR
STARTCHAR semicolon
ENCODING 59
DWIDTH 6 0
BBX 3 5 1 -1
BITMAP
60
00
60
60
C0
ENDCHAR
STARTCHAR less
ENCODING 60
DWIDTH 6 0
BBX 4 5 1 0
BITMAP
30
60
C0
60
30
ENDCHAR
STARTCHAR equal
ENCODING 61
DWIDTH 6 0
BBX 4 3 1 1
BITMAP
F0
00
F0
ENDCHAR
STARTCHAR greater
ENCODING 62
DWIDTH 6 0
BBX 4 5 1 0
BITMAP
C0
60
30
60
C0
ENDCHAR
STARTCHAR question
ENCODING 63
DWIDTH 6 0
BBX 5 7 0 -1
BITMAP
70
98
18
30
30
00
30
ENDCHAR
STARTCHAR at
ENCODING 64
DWIDTH 6 0
BBX 4 8 1 -1
BITMAP
60
D0
F0
D0
D0
F0
C0
60
ENDCHAR
STARTCHAR A
ENCODING 65
BBX 4 6 1 0
BITMAP
60
D0
D0
F0
D0
D0
ENDCHAR
STARTCHAR B
ENCODING 66
BBX 4 6 1 0
BITMAP
E0
D0
E0
D0
D0
E0
ENDCHAR
STARTCHAR C
ENCODING 67
BBX 4 6 1 0
BITMAP
70
C0
C0
C0
C0
70
ENDCHAR
STARTCHAR D
ENCODING 68
BBX 4 6 1 0
BITMAP
E0
D0
D0
D0
D0
E0
ENDCHAR
STARTCHAR E
ENCODING 69
BBX 4 6 1 0
BITMAP
F0
C0
E0
C0
C0
F0
ENDCHAR
STARTCHAR F
ENCODING 70
BBX 4 6 1 0
BITMAP
F0
C0
E0
C0
C0
C0
ENDCHAR
STARTCHAR G
ENCODING 71
BBX 4 6 1 0
BITMAP
70
C0
C0
D0
D0
70
ENDCHAR
STARTCHAR H
ENCODING 72
BBX 4 6 1 0
BITMAP
D0
D0
D0
F0
D0
D0
ENDCHAR
STARTCHAR I
ENCODING 73
BBX 2 6 2 0
BITMAP
C0
C0
C0
C0
C0
C0
ENDCHAR
STARTCHAR J
ENCODING 74
BBX 4 6 1 0
BITMAP
30
30
30
30
30
E0
ENDCHAR
STARTCHAR K
ENCODING 75
BBX 5 6 1 0
BITMAP
C8
D0
E0
E0
D0
C8
ENDCHAR
STARTCHAR L
ENCODING 76
BBX 4 6 1 0
BITMAP
C0
C0
C0
C0
C0
F0
ENDCHAR
STARTCHAR M
ENCODING 77
BBX 6 6 0 0
BITMAP
EC
D4
D4
C4
C4
C4
ENDCHAR
STARTCHAR N
ENCODING 78
BBX 5 6 1 0
BITMAP
C8
C8
E8
D8
C8
C8
ENDCHAR
STARTCHAR O
ENCODING 79
BBX 4 6 1 0
BITMAP
60
D0
D0
D0
D0
60
ENDCHAR
STARTCHAR P
ENCODING 80
BBX 4 6 1 0
BITMAP
E0
D0
D0
E0
C0
C0
ENDCHAR
STARTCHAR Q
ENCODING 81
BBX 4 7 1 -1
BITMAP
60
D0
D0
D0
D0
60
30
ENDCHAR
STARTCHAR R
ENCODING 82
BBX 4 6 1 0
BITMAP
E0
D0
D0
E0
E0
D0
ENDCHAR
STARTCHAR S
ENCODING 83
BBX 4 6 1 0
BITMAP
70
C0
60
30
30
E0
ENDCHAR
STARTCHAR T
ENCODING 84
BBX 6 6 0 0
BITMAP
FC
30
30
30
30
30
ENDCHAR
STARTCHAR U
ENCODING 85
BBX 4 6 1 0
BITMAP
D0
D0
D0
D0
D0
70
ENDCHAR
STARTCHAR V
ENCODING 86
BBX 5 6 0 0
BITMAP
C8
C8
C8
C8
70
60
ENDCHAR
STARTCHAR W
ENCODING 87
BBX 6 6 0 0
BITMAP
C4
C4
C4
D4
D4
78
ENDCHAR
STARTCHAR X
ENCODING 88
BBX 5 6 0 0
BITMAP
C8
C8
70
70
98
98
ENDCHAR
STARTCHAR Y
ENCODING 89
BBX 6 6 0 0
BITMAP
C4
C4
68
30
30
30
ENDCHAR
STARTCHAR Z
ENCODING 90
BBX 4 6 1 0
BITMAP
F0
30
60
C0
C0
F0
ENDCHAR
STARTCHAR bracketleft
ENCODING 91
DWIDTH 6 0
BBX 3 7 1 0
BITMAP
E0
C0
C0
C0
C0
C0
E0
ENDCHAR
STARTCHAR backslash
ENCODING 92
DWIDTH 6 0
BBX 5 8 1 -1
BITMAP
C0
C0
60
60
30
30
18
18
ENDCHAR
STARTCHAR bracketright
ENCODING 93
DWIDTH 6 0
BBX 3 7 2 0
BITMAP
E0
60
60
60
60
60
E0
ENDCHAR
STARTCHAR asciicircum
ENCODING 94
DWIDTH 6 0
BBX 6 3 0 4
BITMAP
30
68
C4
ENDCHAR
STARTCHAR underscore
ENCODING 95
DWIDTH 6 0
BBX 5 1 1 -1
BITMAP
F8
ENDCHAR
STARTCHAR grave
ENCODING 96
DWIDTH 6 0
BBX 3 3 1 4
BITMAP
C0
C0
60
ENDCHAR
STARTCHAR a
ENCODING 97
BBX 5 5 1 0
BITMAP
70
B0
B0
B0
68
ENDCHAR
STARTCHAR b
ENCODING 98
BBX 4 7 1 0
BITMAP
C0
C0
E0
D0
D0
D0
E0
ENDCHAR
STARTCHAR c
ENCODING 99
BBX 4 5 1 0
BITMAP
70
C0
C0
C0
70
ENDCHAR
STARTCHAR d
ENCODING 100
BBX 4 7 1 0
BITMAP
30
30
70
B0
B0
B0
70
ENDCHAR
STARTCHAR e
ENCODING 101
BBX 4 5 1 0
BITMAP
60
D0
F0
C0
70
ENDCHAR
STARTCHAR f
ENCODING 102
BBX 4 7 1 0
BITMAP
70
C0
F0
C0
C0
C0
C0
ENDCHAR
STARTCHAR g
ENCODING 103
BBX 4 7 1 -2
BITMAP
70
B0
B0
B0
70
30
E0
ENDCHAR
STARTCHAR h
ENCODING 104
BBX 4 7 1 0
BITMAP
C0
C0
E0
D0
D0
D0
D0
ENDCHAR
STARTCHAR i
ENCODING 105
BBX 2 7 2 0
BITMAP
C0
00
C0
C0
C0
C0
C0
ENDCHAR
STARTCHAR j
ENCODING 106
BBX 3 8 1 -1
BITMAP
60
00
60
60
60
60
60
C0
ENDCHAR
STARTCHAR k
ENCODING 107
BBX 5 7 1 0
BITMAP
C0
C0
C8
D0
E0
D0
C8
ENDCHAR
STARTCHAR l
ENCODING 108
BBX 4 7 1 0
BITMAP
C0
C0
C0
C0
C0
C0
70
ENDCHAR
STARTCHAR m
ENCODING 109
BBX 6 5 0 0
BITMAP
F8
D4
D4
D4
C4
ENDCHAR
STARTCHAR n
ENCODING 110
BBX 4 5 1 0
BITMAP
E0
D0
D0
D0
D0
ENDCHAR
STARTCHAR o
ENCODING 111
BBX 4 5 1 0
BITMAP
60
D0
D0
D0
60
ENDCHAR
STARTCHAR p
ENCODING 112
BBX 4 7 1 -2
BITMAP
E0
D0
D0
D0
E0
C0
C0
ENDCHAR
STARTCHAR q
ENCODING 113
BBX 4 7 1 -2
BITMAP
70
B0
B0
B0
70
30
30
ENDCHAR
STARTCHAR r
ENCODING 114
BBX 4 5 1 0
BITMAP
70
C0
C0
C0
C0
ENDCHAR
STARTCHAR s
ENCODING 115
BBX 4 5 1 0
BITMAP
70
C0
60
30
E0
ENDCHAR
STARTCHAR t
ENCODING 116
BBX 4 7 1 0
BITMAP
C0
C0
F0
C0
C0
C0
70
ENDCHAR
STARTCHAR u
ENCODING 117
BBX 4 5 1 0
BITMAP
B0
B0
B0
B0
70
ENDCHAR
STARTCHAR v
ENCODING 118
BBX 5 5 0 0
BITMAP
C8
C8
C8
70
70
ENDCHAR
STARTCHAR w
ENCODING 119
BBX 6 5 0 0
BITMAP
C4
D4
D4
D4
7C
ENDCHAR
STARTCHAR x
ENCODING 120
BBX 4 5 1 0
BITMAP
D0
D0
60
B0
B0
ENDCHAR
STARTCHAR y
ENCODING 121
BBX 4 6 1 -1
BITMAP
B0
B0
B0
70
30
60
ENDCHAR
STARTCHAR z
ENCODING 122
BBX 4 5 1 0
BITMAP
F0
30
60
C0
F0
ENDCHAR
STARTCHAR braceleft
ENCODING 123
DWIDTH 6 0
BBX 4 7 1 0
BITMAP
30
60
60
C0
60
60
30
ENDCHAR
STARTCHAR bar
ENCODING 124
DWIDTH 6 0
BBX 2 7 2 -1
BITMAP
C0
C0
C0
C0
C0
C0
C0
ENDCHAR
STARTCHAR braceright
ENCODING 125
DWIDTH 6 0
BBX 4 7 1 0
BITMAP
C0
60
60
30
60
60
C0
ENDCHAR
STARTCHAR asciitilde
ENCODING 126
DWIDTH 6 0
BBX 5 2 1 2
BITMAP
68
B0
ENDCHAR
STARTCHAR uni007F
ENCODING 127
DWIDTH 6 0
BBX 1 1 0 0
BITMAP
00
ENDCHAR
STARTCHAR uni0080
ENCODING 128
DWIDTH 6 0
BBX 1 1 0 0
BITMAP
00
ENDCHAR
STARTCHAR uni0081
ENCODING 129
DWIDTH 6 0
BBX 1 1 0 0
BITMAP
00
ENDCHAR
STARTCHAR uni0082
ENCODING 130
DWIDTH 6 0
BBX 1 1 0 0
BITMAP
00
ENDCHAR
STARTCHAR uni0083
ENCODING 131
DWIDTH 6 0
BBX 1 1 0 0
BITMAP
00
ENDCHAR
STARTCHAR uni0084
ENCODING 132
DWIDTH 6 0
BBX 1 1 0 0
BITMAP
00
ENDCHAR
STARTCHAR uni0085
ENCODING 133
DWIDTH 6 0
BBX 1 1 0 0
BITMAP
00
ENDCHAR
STARTCHAR uni0086
ENCODING 134
DWIDTH 6 0
BBX 1 1 0 0
BITMAP
00
ENDCHAR
STARTCHAR uni0087
ENCODING 135
DWIDTH 6 0
BBX 1 1 0 0
BITMAP
00
ENDCHAR
STARTCHAR uni0088
ENCODING 136
DWIDTH 6 0
BBX 1 1 0 0
BITMAP
00
ENDCHAR
STARTCHAR uni0089
ENCODING 137
DWIDTH 6 0
BBX 1 1 0 0
BITMAP
00
ENDCHAR
STARTCHAR uni008A
ENCODING 138
DWIDTH 6 0
BBX 1 1 0 0
BITMAP
00
ENDCHAR
STARTCHAR uni008B
ENCODING 139
DWIDTH 6 0
BBX 1 1 0 0
BITMAP
00
ENDCHAR
STARTCHAR uni008C
ENCODING 140
DWIDTH 6 0
BBX 1 1 0 0
BITMAP
00
ENDCHAR
STARTCHAR uni008D
ENCODING 141
DWIDTH 6 0
BBX 1 1 0 0
BITMAP
00
ENDCHAR
STARTCHAR uni008E
ENCODING 142
DWIDTH 6 0
BBX 1 1 0 0
BITMAP
00
ENDCHAR
STARTCHAR uni008F
ENCODING 143
DWIDTH 6 0
BBX 1 1 0 0
BITMAP
00
ENDCHAR
STARTCHAR uni0090
ENCODING 144
DWIDTH 6 0
BBX 1 1 0 0
BITMAP
00
ENDCHAR
STARTCHAR uni0091
ENCODING 145
DWIDTH 6 0
BBX 1 1 0 0
BITMAP
00
ENDCHAR
STARTCHAR uni0092
ENCODING 146
DWIDTH 6 0
BBX 1 1 0 0
BITMAP
00
ENDCHAR
STARTCHAR uni0093
ENCODING 147
DWIDTH 6 0
BBX 1 1 0 0
BITMAP
00
ENDCHAR
STARTCHAR uni0094
ENCODING 148
DWIDTH 6 0
BBX 1 1 0 0
BITMAP
00
ENDCHAR
STARTCHAR uni0095
ENCODING 149
DWIDTH 6 0
BBX 1 1 0 0
BITMAP
00
ENDCHAR
STARTCHAR uni0096
ENCODING 150
DWIDTH 6 0
BBX 1 1 0 0
BITMAP
00
ENDCHAR
STARTCHAR uni0097
ENCODING 151
DWIDTH 6 0
BBX 1 1 0 0
BITMAP
00
ENDCHAR
STARTCHAR uni0098
ENCODING 152
DWIDTH 6 0
BBX 1 1 0 0
BITMAP
00
ENDCHAR
STARTCHAR uni0099
ENCODING 153
DWIDTH 6 0
BBX 1 1 0 0
BITMAP
00
ENDCHAR
STARTCHAR uni009A
ENCODING 154
DWIDTH 6 0
BBX 1 1 0 0
BITMAP
00
ENDCHAR
STARTCHAR uni009B
ENCODING 155
DWIDTH 6 0
BBX 1 1 0 0
BITMAP
00
ENDCHAR
STARTCHAR uni009C
ENCODING 156
DWIDTH 6 0
BBX 1 1 0 0
BITMAP
00
ENDCHAR
STARTCHAR uni009D
ENCODING 157
DWIDTH 6 0
BBX 1 1 0 0
BITMAP
00
ENDCHAR
STARTCHAR uni009E
ENCODING 158
DWIDTH 6 0
BBX 1 1 0 0
BITMAP
00
ENDCHAR
STARTCHAR uni009F
ENCODING 159
DWIDTH 6 0
BBX 1 1 0 0
BITMAP
00
ENDCHAR
STARTCHAR uni00A0
ENCODING 160
DWIDTH 6 0
BBX 1 1 0 0
BITMAP
00
ENDCHAR
STARTCHAR exclamdown
ENCODING 161
DWIDTH 6 0
BBX 1 1 0 0
BITMAP
00
ENDCHAR
STARTCHAR cent
ENCODING 162
DWIDTH 6 0
BBX 1 1 0 0
BITMAP
00
ENDCHAR
STARTCHAR sterling
ENCODING 163
DWIDTH 6 0
BBX 1 1 0 0
BITMAP
00
ENDCHAR
STARTCHAR currency
ENCODING 164
DWIDTH 6 0
BBX 6 6 0 0
BITMAP
84
78
48
48
78
84
ENDCHAR
STARTCHAR yen
ENCODING 165
DWIDTH 6 0
BBX 1 1 0 0
BITMAP
00
ENDCHAR
STARTCHAR brokenbar
ENCODING 166
DWIDTH 6 0
BBX 1 7 3 -1
BITMAP
80
80
80
80
80
80
80
ENDCHAR
STARTCHAR section
ENCODING 167
DWIDTH 6 0
BBX 1 1 0 0
BITMAP
00
ENDCHAR
STARTCHAR dieresis
ENCODING 168
DWIDTH 6 0
BBX 4 1 2 5
BITMAP
90
ENDCHAR
STARTCHAR copyright
ENCODING 169
DWIDTH 6 0
BBX 1 1 0 0
BITMAP
00
ENDCHAR
STARTCHAR ordfeminine
ENCODING 170
DWIDTH 6 0
BBX 1 1 0 0
BITMAP
00
ENDCHAR
STARTCHAR guillemotleft
ENCODING 171
DWIDTH 6 0
BBX 1 1 0 0
BITMAP
00
ENDCHAR
STARTCHAR logicalnot
ENCODING 172
DWIDTH 6 0
BBX 1 1 0 0
BITMAP
00
ENDCHAR
STARTCHAR uni00AD
ENCODING 173
DWIDTH 6 0
BBX 1 1 0 0
BITMAP
00
ENDCHAR
STARTCHAR registered
ENCODING 174
DWIDTH 6 0
BBX 1 1 0 0
BITMAP
00
ENDCHAR
STARTCHAR macron
ENCODING 175
DWIDTH 6 0
BBX 1 1 0 0
BITMAP
00
ENDCHAR
STARTCHAR degree
ENCODING 176
DWIDTH 6 0
BBX 1 1 0 0
BITMAP
00
ENDCHAR
STARTCHAR plusminus
ENCODING 177
DWIDTH 6 0
BBX 1 1 0 0
BITMAP
00
ENDCHAR
STARTCHAR uni00B2
ENCODING 178
DWIDTH 6 0
BBX 1 1 0 0
BITMAP
00
ENDCHAR
STARTCHAR uni00B3
ENCODING 179
DWIDTH 6 0
BBX 1 1 0 0
BITMAP
00
ENDCHAR
STARTCHAR acute
ENCODING 180
DWIDTH 6 0
BBX 2 3 2 4
BITMAP
40
40
80
ENDCHAR
STARTCHAR mu
ENCODING 181
DWIDTH 6 0
BBX 1 1 0 0
BITMAP
00
ENDCHAR
STARTCHAR paragraph
ENCODING 182
DWIDTH 6 0
BBX 1 1 0 0
BITMAP
00
ENDCHAR
STARTCHAR periodcentered
ENCODING 183
DWIDTH 6 0
BBX 1 1 0 0
BITMAP
00
ENDCHAR
STARTCHAR cedilla
ENCODING 184
DWIDTH 6 0
BBX 3 3 2 -2
BITMAP
40
20
E0
ENDCHAR
STARTCHAR uni00B9
ENCODING 185
DWIDTH 6 0
BBX 1 1 0 0
BITMAP
00
ENDCHAR
STARTCHAR ordmasculine
ENCODING 186
DWIDTH 6 0
BBX 1 1 0 0
BITMAP
00
ENDCHAR
STARTCHAR guillemotright
ENCODING 187
DWIDTH 6 0
BBX 1 1 0 0
BITMAP
00
ENDCHAR
STARTCHAR onequarter
ENCODING 188
DWIDTH 6 0
BBX 6 9 0 -1
BITMAP
40
C0
48
50
28
58
A8
3C
08
ENDCHAR
STARTCHAR onehalf
ENCODING 189
DWIDTH 6 0
BBX 6 8 0 0
BITMAP
40
C0
48
50
38
44
88
1C
ENDCHAR
STARTCHAR threequarters
ENCODING 190
DWIDTH 6 0
BBX 6 9 0 -1
BITMAP
E0
60
28
F0
28
58
A8
3C
08
ENDCHAR
STARTCHAR questiondown
ENCODING 191
DWIDTH 6 0
BBX 4 7 1 -1
BITMAP
20
00
20
40
80
90
60
ENDCHAR
STARTCHAR Agrave
ENCODING 192
BBX 4 8 1 0
BITMAP
40
20
60
D0
D0
F0
D0
D0
ENDCHAR
STARTCHAR Aacute
ENCODING 193
BBX 4 8 1 0
BITMAP
20
40
60
D0
D0
F0
D0
D0
ENDCHAR
STARTCHAR Acircumflex
ENCODING 194
BBX 4 8 1 0
BITMAP
60
90
60
D0
D0
F0
D0
D0
ENDCHAR
STARTCHAR Atilde
ENCODING 195
BBX 4 8 1 0
BITMAP
50
A0
60
D0
D0
F0
D0
D0
ENDCHAR
STARTCHAR null.dup1
ENCODING 196
BBX 4 8 1 0
BITMAP
50
00
60
D0
D0
F0
D0
D0
ENDCHAR
STARTCHAR Aring
ENCODING 197
BBX 4 8 1 0
BITMAP
20
50
20
60
D0
F0
D0
D0
ENDCHAR
STARTCHAR AE
ENCODING 198
BBX 5 6 0 0
BITMAP
78
B0
B0
F8
B0
B8
ENDCHAR
STARTCHAR Ccedilla
ENCODING 199
BBX 4 8 1 -2
BITMAP
70
C0
C0
C0
C0
70
20
40
ENDCHAR
STARTCHAR Egrave
ENCODING 200
BBX 4 8 1 0
BITMAP
40
20
F0
C0
E0
C0
C0
F0
ENDCHAR
STARTCHAR Eacute
ENCODING 201
BBX 4 8 1 0
BITMAP
20
40
F0
C0
E0
C0
C0
F0
ENDCHAR
STARTCHAR Ecircumflex
ENCODING 202
BBX 4 8 1 0
BITMAP
60
90
F0
C0
E0
C0
C0
F0
ENDCHAR
STARTCHAR Edieresis
ENCODING 203
BBX 4 8 1 0
BITMAP
50
00
F0
C0
E0
C0
C0
F0
ENDCHAR
STARTCHAR Igrave
ENCODING 204
BBX 2 8 2 0
BITMAP
80
40
00
C0
C0
C0
C0
C0
ENDCHAR
STARTCHAR Iacute
ENCODING 205
BBX 2 8 2 0
BITMAP
40
80
00
C0
C0
C0
C0
C0
ENDCHAR
STARTCHAR Icircumflex
ENCODING 206
BBX 4 8 1 0
BITMAP
60
90
00
60
60
60
60
60
ENDCHAR
STARTCHAR Idieresis
ENCODING 207
BBX 3 8 2 0
BITMAP
A0
00
C0
C0
C0
C0
C0
C0
ENDCHAR
STARTCHAR Eth
ENCODING 208
BBX 6 6 0 0
BITMAP
78
64
F4
64
64
78
ENDCHAR
STARTCHAR Ntilde
ENCODING 209
BBX 5 8 1 0
BITMAP
28
50
C8
C8
E8
D8
C8
C8
ENDCHAR
STARTCHAR Ograve
ENCODING 210
BBX 4 8 1 0
BITMAP
40
20
60
D0
D0
D0
D0
60
ENDCHAR
STARTCHAR Oacute
ENCODING 211
BBX 4 8 1 0
BITMAP
20
40
60
D0
D0
D0
D0
60
ENDCHAR
STARTCHAR Ocircumflex
ENCODING 212
BBX 4 8 1 0
BITMAP
60
90
60
D0
D0
D0
D0
60
ENDCHAR
STARTCHAR Otilde
ENCODING 213
BBX 4 8 1 0
BITMAP
50
A0
60
D0
D0
D0
D0
60
ENDCHAR
STARTCHAR Odieresis
ENCODING 214
BBX 4 8 1 0
BITMAP
50
00
60
D0
D0
D0
D0
60
ENDCHAR
STARTCHAR multiply
ENCODING 215
BBX 3 3 2 2
BITMAP
A0
40
A0
ENDCHAR
STARTCHAR Oslash
ENCODING 216
BBX 6 6 0 0
BITMAP
34
68
78
68
68
B0
ENDCHAR
STARTCHAR Ugrave
ENCODING 217
BBX 4 8 1 0
BITMAP
40
20
D0
D0
D0
D0
D0
70
ENDCHAR
STARTCHAR Uacute
ENCODING 218
BBX 4 8 1 0
BITMAP
20
40
D0
D0
D0
D0
D0
70
ENDCHAR
STARTCHAR Ucircumflex
ENCODING 219
BBX 4 8 1 0
BITMAP
60
90
D0
D0
D0
D0
D0
70
ENDCHAR
STARTCHAR Udieresis
ENCODING 220
BBX 4 8 1 0
BITMAP
50
00
D0
D0
D0
D0
D0
70
ENDCHAR
STARTCHAR Yacute
ENCODING 221
BBX 6 8 0 0
BITMAP
08
10
C4
C4
68
30
30
30
ENDCHAR
STARTCHAR Thorn
ENCODING 222
BBX 4 8 1 -1
BITMAP
C0
C0
E0
D0
D0
E0
C0
C0
ENDCHAR
STARTCHAR germandbls
ENCODING 223
BBX 4 8 1 -1
BITMAP
60
E0
E0
D0
D0
D0
E0
C0
ENDCHAR
STARTCHAR agrave
ENCODING 224
BBX 5 8 1 0
BITMAP
40
20
00
70
B0
B0
B0
68
ENDCHAR
STARTCHAR aacute
ENCODING 225
BBX 5 8 1 0
BITMAP
20
40
00
70
B0
B0
B0
68
ENDCHAR
STARTCHAR acircumflex
ENCODING 226
BBX 5 8 1 0
BITMAP
60
90
00
70
B0
B0
B0
68
ENDCHAR
STARTCHAR atilde
ENCODING 227
BBX 5 8 1 0
BITMAP
50
A0
00
70
B0
B0
B0
68
ENDCHAR
STARTCHAR adieresis
ENCODING 228
BBX 5 7 1 0
BITMAP
50
00
70
B0
B0
B0
68
ENDCHAR
STARTCHAR aring
ENCODING 229
BBX 5 8 1 0
BITMAP
20
50
20
70
B0
B0
B0
68
ENDCHAR
STARTCHAR ae
ENCODING 230
BBX 6 5 0 0
BITMAP
78
34
7C
B0
6C
ENDCHAR
STARTCHAR ccedilla
ENCODING 231
BBX 4 7 1 -2
BITMAP
70
C0
C0
C0
70
20
40
ENDCHAR
STARTCHAR egrave
ENCODING 232
BBX 4 8 1 0
BITMAP
40
20
00
60
D0
F0
C0
70
ENDCHAR
STARTCHAR eacute
ENCODING 233
BBX 4 8 1 0
BITMAP
20
40
00
60
D0
F0
C0
70
ENDCHAR
STARTCHAR ecircumflex
ENCODING 234
BBX 4 8 1 0
BITMAP
60
90
00
60
D0
F0
C0
70
ENDCHAR
STARTCHAR edieresis
ENCODING 235
BBX 4 7 1 0
BITMAP
50
00
60
D0
F0
C0
70
ENDCHAR
STARTCHAR igrave
ENCODING 236
BBX 2 8 2 0
BITMAP
80
40
00
C0
C0
C0
C0
C0
ENDCHAR
STARTCHAR iacute
ENCODING 237
BBX 2 8 2 0
BITMAP
40
80
00
C0
C0
C0
C0
C0
ENDCHAR
STARTCHAR icircumflex
ENCODING 238
BBX 4 8 1 0
BITMAP
60
90
00
60
60
60
60
60
ENDCHAR
STARTCHAR idieresis
ENCODING 239
BBX 4 7 1 0
BITMAP
90
00
60
60
60
60
60
ENDCHAR
STARTCHAR eth
ENCODING 240
BBX 5 7 0 0
BITMAP
20
18
38
18
78
98
70
ENDCHAR
STARTCHAR ntilde
ENCODING 241
BBX 4 8 1 0
BITMAP
50
A0
00
E0
D0
D0
D0
D0
ENDCHAR
STARTCHAR ograve
ENCODING 242
BBX 4 8 1 0
BITMAP
40
20
00
60
D0
D0
D0
60
ENDCHAR
STARTCHAR oacute
ENCODING 243
BBX 4 8 1 0
BITMAP
20
40
00
60
D0
D0
D0
60
ENDCHAR
STARTCHAR ocircumflex
ENCODING 244
BBX 4 8 1 0
BITMAP
60
90
00
60
D0
D0
D0
60
ENDCHAR
STARTCHAR otilde
ENCODING 245
BBX 4 8 1 0
BITMAP
50
A0
00
60
D0
D0
D0
60
ENDCHAR
STARTCHAR odieresis
ENCODING 246
BBX 4 7 1 0
BITMAP
50
00
60
D0
D0
D0
60
ENDCHAR
STARTCHAR divide
ENCODING 247
BBX 5 5 1 1
BITMAP
20
00
F8
00
20
ENDCHAR
STARTCHAR oslash
ENCODING 248
BBX 6 5 0 0
BITMAP
34
68
78
68
B0
ENDCHAR
STARTCHAR ugrave
ENCODING 249
BBX 4 8 1 0
BITMAP
40
20
00
B0
B0
B0
B0
70
ENDCHAR
STARTCHAR uacute
ENCODING 250
BBX 4 8 1 0
BITMAP
20
40
00
B0
B0
B0
B0
70
ENDCHAR
STARTCHAR ucircumflex
ENCODING 251
BBX 4 8 1 0
BITMAP
60
90
00
B0
B0
B0
B0
70
ENDCHAR
STARTCHAR udieresis
ENCODING 252
BBX 4 7 1 0
BITMAP
A0
00
B0
B0
B0
B0
70
ENDCHAR
STARTCHAR yacute
ENCODING 253
BBX 4 9 1 -1
BITMAP
20
40
00
B0
B0
B0
70
30
60
ENDCHAR
STARTCHAR thorn
ENCODING 254
BBX 4 7 1 -1
BITMAP
C0
C0
E0
D0
E0
C0
C0
ENDCHAR
STARTCHAR ydieresis
ENCODING 255
BBX 4 8 1 -1
BITMAP
A0
00
B0
B0
B0
70
30
60
ENDCHAR
STARTCHAR Amacron
ENCODING 256
BBX 1 1 0 0
BITMAP
00
ENDCHAR
STARTCHAR amacron
ENCODING 257
BBX 1 1 0 0
BITMAP
00
ENDCHAR
STARTCHAR Abreve
ENCODING 258
BBX 1 1 0 0
BITMAP
00
ENDCHAR
STARTCHAR abreve
ENCODING 259
BBX 1 1 0 0
BITMAP
00
ENDCHAR
STARTCHAR Aogonek
ENCODING 260
BBX 1 1 0 0
BITMAP
00
ENDCHAR
STARTCHAR aogonek
ENCODING 261
BBX 1 1 0 0
BITMAP
00
ENDCHAR
STARTCHAR Cacute
ENCODING 262
BBX 1 1 0 0
BITMAP
00
ENDCHAR
STARTCHAR cacute
ENCODING 263
BBX 1 1 0 0
BITMAP
00
ENDCHAR
STARTCHAR Ccircumflex
ENCODING 264
BBX 1 1 0 0
BITMAP
00
ENDCHAR
STARTCHAR ccircumflex
ENCODING 265
BBX 1 1 0 0
BITMAP
00
ENDCHAR
STARTCHAR Cdotaccent
ENCODING 266
BBX 1 1 0 0
BITMAP
00
ENDCHAR
STARTCHAR cdotaccent
ENCODING 267
BBX 1 1 0 0
BITMAP
00
ENDCHAR
STARTCHAR Ccaron
ENCODING 268
BBX 1 1 0 0
BITMAP
00
ENDCHAR
STARTCHAR ccaron
ENCODING 269
BBX 1 1 0 0
BITMAP
00
ENDCHAR
STARTCHAR Dcaron
ENCODING 270
BBX 1 1 0 0
BITMAP
00
ENDCHAR
STARTCHAR dcaron
ENCODING 271
BBX 1 1 0 0
BITMAP
00
ENDCHAR
STARTCHAR Dcroat
ENCODING 272
BBX 1 1 0 0
BITMAP
00
ENDCHAR
STARTCHAR dcroat
ENCODING 273
BBX 1 1 0 0
BITMAP
00
ENDCHAR
STARTCHAR Emacron
ENCODING 274
BBX 1 1 0 0
BITMAP
00
ENDCHAR
STARTCHAR emacron
ENCODING 275
BBX 1 1 0 0
BITMAP
00
ENDCHAR
STARTCHAR Ebreve
ENCODING 276
BBX 1 1 0 0
BITMAP
00
ENDCHAR
STARTCHAR ebreve
ENCODING 277
BBX 1 1 0 0
BITMAP
00
ENDCHAR
STARTCHAR Edotaccent
ENCODING 278
BBX 1 1 0 0
BITMAP
00
ENDCHAR
STARTCHAR edotaccent
ENCODING 279
BBX 1 1 0 0
BITMAP
00
ENDCHAR
STARTCHAR Eogonek
ENCODING 280
BBX 1 1 0 0
BITMAP
00
ENDCHAR
STARTCHAR eogonek
ENCODING 281
BBX 1 1 0 0
BITMAP
00
ENDCHAR
STARTCHAR Ecaron
ENCODING 282
BBX 1 1 0 0
BITMAP
00
ENDCHAR
STARTCHAR ecaron
ENCODING 283
BBX 1 1 0 0
BITMAP
00
ENDCHAR
STARTCHAR Gcircumflex
ENCODING 284
BBX 1 1 0 0
BITMAP
00
ENDCHAR
STARTCHAR gcircumflex
ENCODING 285
BBX 1 1 0 0
BITMAP
00
ENDCHAR
STARTCHAR Gbreve
ENCODING 286
BBX 1 1 0 0
BITMAP
00
ENDCHAR
STARTCHAR gbreve
ENCODING 287
BBX 1 1 0 0
BITMAP
00
ENDCHAR
STARTCHAR Gdotaccent
ENCODING 288
BBX 1 1 0 0
BITMAP
00
ENDCHAR
STARTCHAR gdotaccent
ENCODING 289
BBX 1 1 0 0
BITMAP
00
ENDCHAR
STARTCHAR uni0122
ENCODING 290
BBX 1 1 0 0
BITMAP
00
ENDCHAR
STARTCHAR uni0123
ENCODING 291
BBX 1 1 0 0
BITMAP
00
ENDCHAR
STARTCHAR Hcircumflex
ENCODING 292
BBX 1 1 0 0
BITMAP
00
ENDCHAR
STARTCHAR hcircumflex
ENCODING 293
BBX 1 1 0 0
BITMAP
00
ENDCHAR
STARTCHAR Hbar
ENCODING 294
BBX 1 1 0 0
BITMAP
00
ENDCHAR
STARTCHAR hbar
ENCODING 295
BBX 1 1 0 0
BITMAP
00
ENDCHAR
STARTCHAR Itilde
ENCODING 296
BBX 1 1 0 0
BITMAP
00
ENDCHAR
STARTCHAR itilde
ENCODING 297
BBX 1 1 0 0
BITMAP
00
ENDCHAR
STARTCHAR Imacron
ENCODING 298
BBX 1 1 0 0
BITMAP
00
ENDCHAR
STARTCHAR imacron
ENCODING 299
BBX 1 1 0 0
BITMAP
00
ENDCHAR
STARTCHAR Ibreve
ENCODING 300
BBX 1 1 0 0
BITMAP
00
ENDCHAR
STARTCHAR ibreve
ENCODING 301
BBX 1 1 0 0
BITMAP
00
ENDCHAR
STARTCHAR Iogonek
ENCODING 302
BBX 1 1 0 0
BITMAP
00
ENDCHAR
STARTCHAR iogonek
ENCODING 303
BBX 1 1 0 0
BITMAP
00
ENDCHAR
STARTCHAR Idotaccent
ENCODING 304
BBX 1 1 0 0
BITMAP
00
ENDCHAR
STARTCHAR dotlessi
ENCODING 305
BBX 1 1 0 0
BITMAP
00
ENDCHAR
STARTCHAR IJ
ENCODING 306
BBX 1 1 0 0
BITMAP
00
ENDCHAR
STARTCHAR ij
ENCODING 307
BBX 1 1 0 0
BITMAP
00
ENDCHAR
STARTCHAR Jcircumflex
ENCODING 308
BBX 1 1 0 0
BITMAP
00
ENDCHAR
STARTCHAR jcircumflex
ENCODING 309
BBX 1 1 0 0
BITMAP
00
ENDCHAR
STARTCHAR uni0136
ENCODING 310
BBX 1 1 0 0
BITMAP
00
ENDCHAR
STARTCHAR uni0137
ENCODING 311
BBX 1 1 0 0
BITMAP
00
ENDCHAR
STARTCHAR kgreenlandic
ENCODING 312
BBX 1 1 0 0
BITMAP
00
ENDCHAR
STARTCHAR Lacute
ENCODING 313
BBX 1 1 0 0
BITMAP
00
ENDCHAR
STARTCHAR lacute
ENCODING 314
BBX 1 1 0 0
BITMAP
00
ENDCHAR
STARTCHAR uni013B
ENCODING 315
BBX 1 1 0 0
BITMAP
00
ENDCHAR
STARTCHAR uni013C
ENCODING 316
BBX 1 1 0 0
BITMAP
00
ENDCHAR
STARTCHAR Lcaron
ENCODING 317
BBX 1 1 0 0
BITMAP
00
ENDCHAR
STARTCHAR lcaron
ENCODING 318
BBX 1 1 0 0
BITMAP
00
ENDCHAR
STARTCHAR Ldot
ENCODING 319
BBX 1 1 0 0
BITMAP
00
ENDCHAR
STARTCHAR ldot
ENCODING 320
BBX 1 1 0 0
BITMAP
00
ENDCHAR
STARTCHAR Lslash
ENCODING 321
BBX 1 1 0 0
BITMAP
00
ENDCHAR
STARTCHAR lslash
ENCODING 322
BBX 1 1 0 0
BITMAP
00
ENDCHAR
STARTCHAR Nacute
ENCODING 323
BBX 1 1 0 0
BITMAP
00
ENDCHAR
STARTCHAR nacute
ENCODING 324
BBX 1 1 0 0
BITMAP
00
ENDCHAR
STARTCHAR uni0145
ENCODING 325
BBX 1 1 0 0
BITMAP
00
ENDCHAR
STARTCHAR uni0146
ENCODING 326
BBX 1 1 0 0
BITMAP
00
ENDCHAR
STARTCHAR Ncaron
ENCODING 327
BBX 1 1 0 0
BITMAP
00
ENDCHAR
STARTCHAR ncaron
ENCODING 328
BBX 1 1 0 0
BITMAP
00
ENDCHAR
STARTCHAR napostrophe
ENCODING 329
BBX 1 1 0 0
BITMAP
00
ENDCHAR
STARTCHAR Eng
ENCODING 330
BBX 1 1 0 0
BITMAP
00
ENDCHAR
STARTCHAR eng
ENCODING 331
BBX 1 1 0 0
BITMAP
00
ENDCHAR
STARTCHAR Omacron
ENCODING 332
BBX 1 1 0 0
BITMAP
00
ENDCHAR
STARTCHAR omacron
ENCODING 333
BBX 1 1 0 0
BITMAP
00
ENDCHAR
STARTCHAR Obreve
ENCODING 334
BBX 1 1 0 0
BITMAP
00
ENDCHAR
STARTCHAR obreve
ENCODING 335
BBX 1 1 0 0
BITMAP
00
ENDCHAR
STARTCHAR Ohungarumlaut
ENCODING 336
BBX 1 1 0 0
BITMAP
00
ENDCHAR
STARTCHAR ohungarumlaut
ENCODING 337
BBX 1 1 0 0
BITMAP
00
ENDCHAR
STARTCHAR OE
ENCODING 338
BBX 1 1 0 0
BITMAP
00
ENDCHAR
STARTCHAR oe
ENCODING 339
BBX 1 1 0 0
BITMAP
00
ENDCHAR
STARTCHAR Racute
ENCODING 340
BBX 1 1 0 0
BITMAP
00
ENDCHAR
STARTCHAR racute
ENCODING 341
BBX 1 1 0 0
BITMAP
00
ENDCHAR
STARTCHAR uni0156
ENCODING 342
BBX 1 1 0 0
BITMAP
00
ENDCHAR
STARTCHAR uni0157
ENCODING 343
BBX 1 1 0 0
BITMAP
00
ENDCHAR
STARTCHAR Rcaron
ENCODING 344
BBX 1 1 0 0
BITMAP
00
ENDCHAR
STARTCHAR rcaron
ENCODING 345
BBX 1 1 0 0
BITMAP
00
ENDCHAR
STARTCHAR Sacute
ENCODING 346
BBX 1 1 0 0
BITMAP
00
ENDCHAR
STARTCHAR sacute
ENCODING 347
BBX 1 1 0 0
BITMAP
00
ENDCHAR
STARTCHAR Scircumflex
ENCODING 348
BBX 1 1 0 0
BITMAP
00
ENDCHAR
STARTCHAR scircumflex
ENCODING 349
BBX 1 1 0 0
BITMAP
00
ENDCHAR
STARTCHAR Scedilla
ENCODING 350
BBX 1 1 0 0
BITMAP
00
ENDCHAR
STARTCHAR scedilla
ENCODING 351
BBX 1 1 0 0
BITMAP
00
ENDCHAR
STARTCHAR Scaron
ENCODING 352
BBX 1 1 0 0
BITMAP
00
ENDCHAR
STARTCHAR scaron
ENCODING 353
BBX 1 1 0 0
BITMAP
00
ENDCHAR
STARTCHAR uni0162
ENCODING 354
BBX 1 1 0 0
BITMAP
00
ENDCHAR
STARTCHAR uni0163
ENCODING 355
BBX 1 1 0 0
BITMAP
00
ENDCHAR
STARTCHAR Tcaron
ENCODING 356
BBX 1 1 0 0
BITMAP
00
ENDCHAR
STARTCHAR tcaron
ENCODING 357
BBX 1 1 0 0
BITMAP
00
ENDCHAR
STARTCHAR Tbar
ENCODING 358
BBX 1 1 0 0
BITMAP
00
ENDCHAR
STARTCHAR tbar
ENCODING 359
BBX 1 1 0 0
BITMAP
00
ENDCHAR
STARTCHAR Utilde
ENCODING 360
BBX 1 1 0 0
BITMAP
00
ENDCHAR
STARTCHAR utilde
ENCODING 361
BBX 1 1 0 0
BITMAP
00
ENDCHAR
STARTCHAR Umacron
ENCODING 362
BBX 1 1 0 0
BITMAP
00
ENDCHAR
STARTCHAR umacron
ENCODING 363
BBX 1 1 0 0
BITMAP
00
ENDCHAR
STARTCHAR Ubreve
ENCODING 364
BBX 1 1 0 0
BITMAP
00
ENDCHAR
STARTCHAR ubreve
ENCODING 365
BBX 1 1 0 0
BITMAP
00
ENDCHAR
STARTCHAR Uring
ENCODING 366
BBX 1 1 0 0
BITMAP
00
ENDCHAR
STARTCHAR uring
ENCODING 367
BBX 1 1 0 0
BITMAP
00
ENDCHAR
STARTCHAR Uhungarumlaut
ENCODING 368
BBX 1 1 0 0
BITMAP
00
ENDCHAR
STARTCHAR uhungarumlaut
ENCODING 369
BBX 1 1 0 0
BITMAP
00
ENDCHAR
STARTCHAR Uogonek
ENCODING 370
BBX 1 1 0 0
BITMAP
00
ENDCHAR
STARTCHAR uogonek
ENCODING 371
BBX 1 1 0 0
BITMAP
00
ENDCHAR
STARTCHAR Wcircumflex
ENCODING 372
BBX 1 1 0 0
BITMAP
00
ENDCHAR
STARTCHAR wcircumflex
ENCODING 373
BBX 1 1 0 0
BITMAP
00
ENDCHAR
STARTCHAR Ycircumflex
ENCODING 374
BBX 1 1 0 0
BITMAP
00
ENDCHAR
STARTCHAR ycircumflex
ENCODING 375
BBX 1 1 0 0
BITMAP
00
ENDCHAR
STARTCHAR Ydieresis
ENCODING 376
BBX 1 1 0 0
BITMAP
00
ENDCHAR
STARTCHAR Zacute
ENCODING 377
BBX 1 1 0 0
BITMAP
00
ENDCHAR
STARTCHAR zacute
ENCODING 378
BBX 1 1 0 0
BITMAP
00
ENDCHAR
STARTCHAR Zdotaccent
ENCODING 379
BBX 1 1 0 0
BITMAP
00
ENDCHAR
STARTCHAR zdotaccent
ENCODING 380
BBX 1 1 0 0
BITMAP
00
ENDCHAR
STARTCHAR Zcaron
ENCODING 381
BBX 1 1 0 0
BITMAP
00
ENDCHAR
STARTCHAR zcaron
ENCODING 382
BBX 1 1 0 0
BITMAP
00
ENDCHAR
STARTCHAR longs
ENCODING 383
BBX 1 1 0 0
BITMAP
00
ENDCHAR
STARTCHAR uni0180
ENCODING 384
BBX 1 1 0 0
BITMAP
00
ENDCHAR
STARTCHAR uni0181
ENCODING 385
BBX 1 1 0 0
BITMAP
00
ENDCHAR
STARTCHAR uni0182
ENCODING 386
BBX 1 1 0 0
BITMAP
00
ENDCHAR
STARTCHAR uni0183
ENCODING 387
BBX 1 1 0 0
BITMAP
00
ENDCHAR
STARTCHAR uni0184
ENCODING 388
BBX 1 1 0 0
BITMAP
00
ENDCHAR
STARTCHAR uni0185
ENCODING 389
BBX 1 1 0 0
BITMAP
00
ENDCHAR
STARTCHAR uni0186
ENCODING 390
BBX 1 1 0 0
BITMAP
00
ENDCHAR
STARTCHAR uni0187
ENCODING 391
BBX 1 1 0 0
BITMAP
00
ENDCHAR
STARTCHAR uni0188
ENCODING 392
BBX 1 1 0 0
BITMAP
00
ENDCHAR
STARTCHAR uni0189
ENCODING 393
BBX 1 1 0 0
BITMAP
00
ENDCHAR
STARTCHAR uni018A
ENCODING 394
BBX 1 1 0 0
BITMAP
00
ENDCHAR
STARTCHAR uni018B
ENCODING 395
BBX 1 1 0 0
BITMAP
00
ENDCHAR
STARTCHAR uni018C
ENCODING 396
BBX 1 1 0 0
BITMAP
00
ENDCHAR
STARTCHAR uni018D
ENCODING 397
BBX 1 1 0 0
BITMAP
00
ENDCHAR
STARTCHAR uni018E
ENCODING 398
BBX 1 1 0 0
BITMAP
00
ENDCHAR
STARTCHAR pi
ENCODING 960
BBX 5 5 0 0
BITMAP
F8
50
50
50
48
ENDCHAR
STARTCHAR Euro
ENCODING 8364
DWIDTH 6 0
BBX 1 1 0 0
BITMAP
80
ENDCHAR
STARTCHAR arrowup
ENCODING 8593
DWIDTH 6 0
BBX 5 7 1 0
BITMAP
20
70
A8
20
20
20
20
ENDCHAR
STARTCHAR arrowdown
ENCODING 8595
DWIDTH 6 0
BBX 5 7 1 0
BITMAP
20
20
20
20
A8
70
20
ENDCHAR
STARTCHAR lessequal
ENCODING 8804
DWIDTH 6 0
BBX 4 9 0 -2
BITMAP
10
20
40
80
40
20
90
40
20
ENDCHAR
STARTCHAR greaterequal
ENCODING 8805
DWIDTH 6 0
BBX 4 9 1 -2
BITMAP
80
40
20
10
20
40
90
20
40
ENDCHAR
STARTCHAR SF100000
ENCODING 9472
DWIDTH 6 0
BBX 6 1 0 3
BITMAP
FC
ENDCHAR
STARTCHAR uni2501
ENCODING 9473
DWIDTH 6 0
BBX 6 2 0 2
BITMAP
FC
FC
ENDCHAR
STARTCHAR SF110000
ENCODING 9474
DWIDTH 6 0
BBX 1 10 2 -2
BITMAP
80
80
80
80
80
80
80
80
80
80
ENDCHAR
STARTCHAR uni2503
ENCODING 9475
DWIDTH 6 0
BBX 2 10 2 -2
BITMAP
C0
C0
C0
C0
C0
C0
C0
C0
C0
C0
ENDCHAR
STARTCHAR uni2504
ENCODING 9476
DWIDTH 6 0
BBX 5 1 0 3
BITMAP
A8
ENDCHAR
STARTCHAR uni2505
ENCODING 9477
DWIDTH 6 0
BBX 5 2 0 2
BITMAP
A8
A8
ENDCHAR
STARTCHAR uni2506
ENCODING 9478
DWIDTH 6 0
BBX 1 10 2 -2
BITMAP
80
80
00
80
80
80
80
00
80
80
ENDCHAR
STARTCHAR uni2507
ENCODING 9479
DWIDTH 6 0
BBX 2 10 2 -2
BITMAP
C0
C0
00
C0
C0
C0
C0
00
C0
C0
ENDCHAR
STARTCHAR uni2508
ENCODING 9480
DWIDTH 6 0
BBX 5 1 0 3
BITMAP
A8
ENDCHAR
STARTCHAR uni2509
ENCODING 9481
DWIDTH 6 0
BBX 5 2 0 2
BITMAP
A8
A8
ENDCHAR
STARTCHAR uni250A
ENCODING 9482
DWIDTH 6 0
BBX 1 10 2 -2
BITMAP
80
80
00
80
80
00
80
80
00
80
ENDCHAR
STARTCHAR uni250B
ENCODING 9483
DWIDTH 6 0
BBX 2 10 2 -2
BITMAP
C0
C0
00
C0
C0
00
C0
C0
00
C0
ENDCHAR
STARTCHAR SF010000
ENCODING 9484
DWIDTH 6 0
BBX 4 6 2 -2
BITMAP
F0
80
80
80
80
80
ENDCHAR
STARTCHAR uni250D
ENCODING 9485
DWIDTH 6 0
BBX 4 6 2 -2
BITMAP
F0
F0
80
80
80
80
ENDCHAR
STARTCHAR uni250E
ENCODING 9486
DWIDTH 6 0
BBX 4 6 2 -2
BITMAP
F0
C0
C0
C0
C0
C0
ENDCHAR
STARTCHAR uni250F
ENCODING 9487
DWIDTH 6 0
BBX 4 6 2 -2
BITMAP
F0
F0
C0
C0
C0
C0
ENDCHAR
STARTCHAR SF030000
ENCODING 9488
DWIDTH 6 0
BBX 3 6 0 -2
BITMAP
E0
20
20
20
20
20
ENDCHAR
STARTCHAR uni2511
ENCODING 9489
DWIDTH 6 0
BBX 3 6 0 -2
BITMAP
E0
E0
20
20
20
20
ENDCHAR
STARTCHAR uni2512
ENCODING 9490
DWIDTH 6 0
BBX 4 6 0 -2
BITMAP
F0
30
30
30
30
30
ENDCHAR
STARTCHAR uni2513
ENCODING 9491
DWIDTH 6 0
BBX 4 6 0 -2
BITMAP
F0
F0
30
30
30
30
ENDCHAR
STARTCHAR SF020000
ENCODING 9492
DWIDTH 6 0
BBX 4 5 2 3
BITMAP
80
80
80
80
F0
ENDCHAR
STARTCHAR uni2515
ENCODING 9493
DWIDTH 6 0
BBX 4 6 2 2
BITMAP
80
80
80
80
F0
F0
ENDCHAR
STARTCHAR uni2516
ENCODING 9494
DWIDTH 6 0
BBX 4 5 2 3
BITMAP
C0
C0
C0
C0
F0
ENDCHAR
STARTCHAR uni2517
ENCODING 9495
DWIDTH 6 0
BBX 4 6 2 2
BITMAP
C0
C0
C0
C0
F0
F0
ENDCHAR
STARTCHAR SF040000
ENCODING 9496
DWIDTH 6 0
BBX 3 5 0 3
BITMAP
20
20
20
20
E0
ENDCHAR
STARTCHAR uni2519
ENCODING 9497
DWIDTH 6 0
BBX 3 6 0 2
BITMAP
20
20
20
20
E0
E0
ENDCHAR
STARTCHAR uni251A
ENCODING 9498
DWIDTH 6 0
BBX 4 5 0 3
BITMAP
30
30
30
30
F0
ENDCHAR
STARTCHAR uni251B
ENCODING 9499
DWIDTH 6 0
BBX 4 6 0 2
BITMAP
30
30
30
30
F0
F0
ENDCHAR
STARTCHAR SF080000
ENCODING 9500
DWIDTH 6 0
BBX 4 10 2 -2
BITMAP
80
80
80
80
F0
80
80
80
80
80
ENDCHAR
STARTCHAR uni251D
ENCODING 9501
DWIDTH 6 0
BBX 4 10 2 -2
BITMAP
80
80
80
80
F0
F0
80
80
80
80
ENDCHAR
STARTCHAR uni251E
ENCODING 9502
DWIDTH 6 0
BBX 4 10 2 -2
BITMAP
C0
C0
C0
C0
F0
80
80
80
80
80
ENDCHAR
STARTCHAR uni251F
ENCODING 9503
DWIDTH 6 0
BBX 4 10 2 -2
BITMAP
80
80
80
80
F0
C0
C0
C0
C0
C0
ENDCHAR
STARTCHAR uni2520
ENCODING 9504
DWIDTH 6 0
BBX 4 10 2 -2
BITMAP
C0
C0
C0
C0
F0
C0
C0
C0
C0
C0
ENDCHAR
STARTCHAR uni2521
ENCODING 9505
DWIDTH 6 0
BBX 4 10 2 -2
BITMAP
C0
C0
C0
C0
F0
F0
80
80
80
80
ENDCHAR
STARTCHAR uni2522
ENCODING 9506
DWIDTH 6 0
BBX 4 10 2 -2
BITMAP
80
80
80
80
F0
F0
C0
C0
C0
C0
ENDCHAR
STARTCHAR uni2523
ENCODING 9507
DWIDTH 6 0
BBX 4 10 2 -2
BITMAP
C0
C0
C0
C0
F0
F0
C0
C0
C0
C0
ENDCHAR
STARTCHAR SF090000
ENCODING 9508
DWIDTH 6 0
BBX 3 10 0 -2
BITMAP
20
20
20
20
E0
20
20
20
20
20
ENDCHAR
STARTCHAR uni2525
ENCODING 9509
DWIDTH 6 0
BBX 3 10 0 -2
BITMAP
20
20
20
20
E0
E0
20
20
20
20
ENDCHAR
STARTCHAR uni2526
ENCODING 9510
DWIDTH 6 0
BBX 4 10 0 -2
BITMAP
30
30
30
30
E0
20
20
20
20
20
ENDCHAR
STARTCHAR uni2527
ENCODING 9511
DWIDTH 6 0
BBX 4 10 0 -2
BITMAP
20
20
20
20
E0
30
30
30
30
30
ENDCHAR
STARTCHAR uni2528
ENCODING 9512
DWIDTH 6 0
BBX 4 10 0 -2
BITMAP
30
30
30
30
F0
30
30
30
30
30
ENDCHAR
STARTCHAR uni2529
ENCODING 9513
DWIDTH 6 0
BBX 4 10 0 -2
BITMAP
30
30
30
30
F0
F0
20
20
20
20
ENDCHAR
STARTCHAR uni252A
ENCODING 9514
DWIDTH 6 0
BBX 4 10 0 -2
BITMAP
20
20
20
20
F0
F0
30
30
30
30
ENDCHAR
STARTCHAR uni252B
ENCODING 9515
DWIDTH 6 0
BBX 4 10 0 -2
BITMAP
30
30
30
30
F0
F0
30
30
30
30
ENDCHAR
STARTCHAR SF060000
ENCODING 9516
DWIDTH 6 0
BBX 6 6 0 -2
BITMAP
FC
20
20
20
20
20
ENDCHAR
STARTCHAR uni252D
ENCODING 9517
DWIDTH 6 0
BBX 6 6 0 -2
BITMAP
FC
E0
20
20
20
20
ENDCHAR
STARTCHAR uni252E
ENCODING 9518
DWIDTH 6 0
BBX 6 6 0 -2
BITMAP
FC
3C
20
20
20
20
ENDCHAR
STARTCHAR uni252F
ENCODING 9519
DWIDTH 6 0
BBX 6 6 0 -2
BITMAP
FC
FC
20
20
20
20
ENDCHAR
STARTCHAR uni2530
ENCODING 9520
DWIDTH 6 0
BBX 6 6 0 -2
BITMAP
FC
30
30
30
30
30
ENDCHAR
STARTCHAR uni2531
ENCODING 9521
DWIDTH 6 0
BBX 6 6 0 -2
BITMAP
FC
F0
30
30
30
30
ENDCHAR
STARTCHAR uni2532
ENCODING 9522
DWIDTH 6 0
BBX 6 6 0 -2
BITMAP
FC
3C
30
30
30
30
ENDCHAR
STARTCHAR uni2533
ENCODING 9523
DWIDTH 6 0
BBX 6 6 0 -2
BITMAP
FC
FC
30
30
30
30
ENDCHAR
STARTCHAR SF070000
ENCODING 9524
DWIDTH 6 0
BBX 6 5 0 3
BITMAP
20
20
20
20
FC
ENDCHAR
STARTCHAR uni2535
ENCODING 9525
DWIDTH 6 0
BBX 6 6 0 2
BITMAP
20
20
20
20
FC
C0
ENDCHAR
STARTCHAR uni2536
ENCODING 9526
DWIDTH 6 0
BBX 6 6 0 2
BITMAP
20
20
20
20
FC
1C
ENDCHAR
STARTCHAR uni2537
ENCODING 9527
DWIDTH 6 0
BBX 6 6 0 2
BITMAP
20
20
20
20
FC
FC
ENDCHAR
STARTCHAR uni2538
ENCODING 9528
DWIDTH 6 0
BBX 6 5 0 3
BITMAP
30
30
30
30
FC
ENDCHAR
STARTCHAR uni2539
ENCODING 9529
DWIDTH 6 0
BBX 6 6 0 2
BITMAP
30
30
30
30
FC
E0
ENDCHAR
STARTCHAR uni253A
ENCODING 9530
DWIDTH 6 0
BBX 6 6 0 2
BITMAP
30
30
30
30
FC
1C
ENDCHAR
STARTCHAR uni253B
ENCODING 9531
DWIDTH 6 0
BBX 6 6 0 2
BITMAP
30
30
30
30
FC
FC
ENDCHAR
STARTCHAR SF050000
ENCODING 9532
DWIDTH 6 0
BBX 6 10 0 -2
BITMAP
20
20
20
20
FC
20
20
20
20
20
ENDCHAR
STARTCHAR uni253D
ENCODING 9533
DWIDTH 6 0
BBX 6 10 0 -2
BITMAP
20
20
20
20
FC
E0
20
20
20
20
ENDCHAR
STARTCHAR uni253E
ENCODING 9534
DWIDTH 6 0
BBX 6 10 0 -2
BITMAP
20
20
20
20
FC
3C
20
20
20
20
ENDCHAR
STARTCHAR uni253F
ENCODING 9535
DWIDTH 6 0
BBX 6 10 0 -2
BITMAP
20
20
20
20
FC
FC
20
20
20
20
ENDCHAR
STARTCHAR uni2540
ENCODING 9536
DWIDTH 6 0
BBX 6 10 0 -2
BITMAP
30
30
30
30
FC
20
20
20
20
20
ENDCHAR
STARTCHAR uni2541
ENCODING 9537
DWIDTH 6 0
BBX 6 10 0 -2
BITMAP
20
20
20
20
FC
30
30
30
30
30
ENDCHAR
STARTCHAR uni2542
ENCODING 9538
DWIDTH 6 0
BBX 6 10 0 -2
BITMAP
30
30
30
30
FC
30
30
30
30
30
ENDCHAR
STARTCHAR uni2543
ENCODING 9539
DWIDTH 6 0
BBX 6 10 0 -2
BITMAP
30
30
30
30
FC
E0
20
20
20
20
ENDCHAR
STARTCHAR uni2544
ENCODING 9540
DWIDTH 6 0
BBX 6 10 0 -2
BITMAP
30
30
30
30
FC
3C
20
20
20
20
ENDCHAR
STARTCHAR uni2545
ENCODING 9541
DWIDTH 6 0
BBX 6 10 0 -2
BITMAP
20
20
20
20
FC
F0
30
30
30
30
ENDCHAR
STARTCHAR uni2546
ENCODING 9542
DWIDTH 6 0
BBX 6 10 0 -2
BITMAP
20
20
20
20
FC
3C
30
30
30
30
ENDCHAR
STARTCHAR uni2547
ENCODING 9543
DWIDTH 6 0
BBX 6 10 0 -2
BITMAP
30
30
30
30
FC
FC
20
20
20
20
ENDCHAR
STARTCHAR uni2548
ENCODING 9544
DWIDTH 6 0
BBX 6 10 0 -2
BITMAP
20
20
20
20
FC
FC
30
30
30
30
ENDCHAR
STARTCHAR uni2549
ENCODING 9545
DWIDTH 6 0
BBX 6 10 0 -2
BITMAP
30
30
30
30
FC
F0
30
30
30
30
ENDCHAR
STARTCHAR uni254A
ENCODING 9546
DWIDTH 6 0
BBX 6 10 0 -2
BITMAP
30
30
30
30
FC
3C
30
30
30
30
ENDCHAR
STARTCHAR uni254B
ENCODING 9547
DWIDTH 6 0
BBX 6 10 0 -2
BITMAP
30
30
30
30
FC
FC
30
30
30
30
ENDCHAR
STARTCHAR uni254C
ENCODING 9548
DWIDTH 6 0
BBX 6 1 0 3
BITMAP
CC
ENDCHAR
STARTCHAR uni254D
ENCODING 9549
DWIDTH 6 0
BBX 6 2 0 2
BITMAP
CC
CC
ENDCHAR
STARTCHAR uni254E
ENCODING 9550
DWIDTH 6 0
BBX 1 10 2 -2
BITMAP
80
80
80
80
00
00
80
80
80
80
ENDCHAR
STARTCHAR uni254F
ENCODING 9551
DWIDTH 6 0
BBX 2 10 2 -2
BITMAP
C0
C0
C0
C0
00
00
C0
C0
C0
C0
ENDCHAR
STARTCHAR SF430000
ENCODING 9552
DWIDTH 6 0
BBX 6 3 0 2
BITMAP
FC
00
FC
ENDCHAR
STARTCHAR SF240000
ENCODING 9553
DWIDTH 6 0
BBX 3 10 1 -2
BITMAP
A0
A0
A0
A0
A0
A0
A0
A0
A0
A0
ENDCHAR
STARTCHAR SF510000
ENCODING 9554
DWIDTH 6 0
BBX 4 7 2 -2
BITMAP
F0
80
F0
80
80
80
80
ENDCHAR
STARTCHAR SF520000
ENCODING 9555
DWIDTH 6 0
BBX 5 6 1 -2
BITMAP
F8
A0
A0
A0
A0
A0
ENDCHAR
STARTCHAR SF390000
ENCODING 9556
DWIDTH 6 0
BBX 5 7 1 -2
BITMAP
F8
80
B8
A0
A0
A0
A0
ENDCHAR
STARTCHAR SF220000
ENCODING 9557
DWIDTH 6 0
BBX 3 7 0 -2
BITMAP
E0
20
E0
20
20
20
20
ENDCHAR
STARTCHAR SF210000
ENCODING 9558
DWIDTH 6 0
BBX 4 6 0 -2
BITMAP
F0
50
50
50
50
50
ENDCHAR
STARTCHAR SF250000
ENCODING 9559
DWIDTH 6 0
BBX 4 7 0 -2
BITMAP
F0
10
D0
50
50
50
50
ENDCHAR
STARTCHAR SF500000
ENCODING 9560
DWIDTH 6 0
BBX 4 6 2 2
BITMAP
80
80
80
F0
80
F0
ENDCHAR
STARTCHAR SF490000
ENCODING 9561
DWIDTH 6 0
BBX 5 5 1 3
BITMAP
A0
A0
A0
A0
F8
ENDCHAR
STARTCHAR SF380000
ENCODING 9562
DWIDTH 6 0
BBX 5 6 1 2
BITMAP
A0
A0
A0
B8
80
F8
ENDCHAR
STARTCHAR SF280000
ENCODING 9563
DWIDTH 6 0
BBX 3 6 0 2
BITMAP
20
20
20
E0
20
E0
ENDCHAR
STARTCHAR SF270000
ENCODING 9564
DWIDTH 6 0
BBX 4 5 0 3
BITMAP
50
50
50
50
F0
ENDCHAR
STARTCHAR SF260000
ENCODING 9565
DWIDTH 6 0
BBX 4 6 0 2
BITMAP
50
50
50
D0
10
F0
ENDCHAR
STARTCHAR SF360000
ENCODING 9566
DWIDTH 6 0
BBX 4 10 2 -2
BITMAP
80
80
80
F0
80
F0
80
80
80
80
ENDCHAR
STARTCHAR SF370000
ENCODING 9567
DWIDTH 6 0
BBX 5 10 1 -2
BITMAP
A0
A0
A0
A0
B8
A0
A0
A0
A0
A0
ENDCHAR
STARTCHAR SF420000
ENCODING 9568
DWIDTH 6 0
BBX 5 10 1 -2
BITMAP
A0
A0
A0
B8
80
B8
A0
A0
A0
A0
ENDCHAR
STARTCHAR SF190000
ENCODING 9569
DWIDTH 6 0
BBX 3 10 0 -2
BITMAP
20
20
20
E0
20
E0
20
20
20
20
ENDCHAR
STARTCHAR SF200000
ENCODING 9570
DWIDTH 6 0
BBX 4 10 0 -2
BITMAP
50
50
50
50
D0
50
50
50
50
50
ENDCHAR
STARTCHAR SF230000
ENCODING 9571
DWIDTH 6 0
BBX 4 10 0 -2
BITMAP
50
50
50
D0
10
D0
50
50
50
50
ENDCHAR
STARTCHAR SF470000
ENCODING 9572
DWIDTH 6 0
BBX 6 7 0 -2
BITMAP
FC
00
FC
20
20
20
20
ENDCHAR
STARTCHAR SF480000
ENCODING 9573
DWIDTH 6 0
BBX 6 6 0 -2
BITMAP
FC
50
50
50
50
50
ENDCHAR
STARTCHAR SF410000
ENCODING 9574
DWIDTH 6 0
BBX 6 7 0 -2
BITMAP
FC
00
DC
50
50
50
50
ENDCHAR
STARTCHAR SF450000
ENCODING 9575
DWIDTH 6 0
BBX 6 6 0 2
BITMAP
20
20
20
FC
00
FC
ENDCHAR
STARTCHAR SF460000
ENCODING 9576
DWIDTH 6 0
BBX 6 5 0 3
BITMAP
50
50
50
50
FC
ENDCHAR
STARTCHAR SF400000
ENCODING 9577
DWIDTH 6 0
BBX 6 6 0 2
BITMAP
50
50
50
DC
00
FC
ENDCHAR
STARTCHAR SF540000
ENCODING 9578
DWIDTH 6 0
BBX 6 10 0 -2
BITMAP
20
20
20
FC
20
FC
20
20
20
20
ENDCHAR
STARTCHAR SF530000
ENCODING 9579
DWIDTH 6 0
BBX 6 10 0 -2
BITMAP
50
50
50
50
FC
50
50
50
50
50
ENDCHAR
STARTCHAR SF440000
ENCODING 9580
DWIDTH 6 0
BBX 6 10 0 -2
BITMAP
50
50
50
DC
00
DC
50
50
50
50
ENDCHAR
STARTCHAR uni256D
ENCODING 9581
DWIDTH 6 0
BBX 4 6 2 -2
BITMAP
30
40
80
80
80
80
ENDCHAR
STARTCHAR uni256E
ENCODING 9582
DWIDTH 6 0
BBX 3 6 0 -2
BITMAP
80
40
20
20
20
20
ENDCHAR
STARTCHAR uni256F
ENCODING 9583
DWIDTH 6 0
BBX 3 5 0 3
BITMAP
20
20
20
40
80
ENDCHAR
STARTCHAR uni2570
ENCODING 9584
DWIDTH 6 0
BBX 4 5 2 3
BITMAP
80
80
80
40
30
ENDCHAR
STARTCHAR uni2571
ENCODING 9585
DWIDTH 6 0
BBX 6 10 0 -2
BITMAP
04
04
08
08
10
20
40
40
80
80
ENDCHAR
STARTCHAR uni2572
ENCODING 9586
DWIDTH 6 0
BBX 6 10 0 -2
BITMAP
80
80
40
40
20
10
08
08
04
04
ENDCHAR
STARTCHAR uni2573
ENCODING 9587
DWIDTH 6 0
BBX 6 10 0 -2
BITMAP
84
84
48
48
30
30
48
48
84
84
ENDCHAR
STARTCHAR uni2574
ENCODING 9588
DWIDTH 6 0
BBX 3 1 0 3
BITMAP
E0
ENDCHAR
STARTCHAR uni2575
ENCODING 9589
DWIDTH 6 0
BBX 1 5 2 3
BITMAP
80
80
80
80
80
ENDCHAR
STARTCHAR uni2576
ENCODING 9590
DWIDTH 6 0
BBX 4 1 2 3
BITMAP
F0
ENDCHAR
STARTCHAR uni2577
ENCODING 9591
DWIDTH 6 0
BBX 1 6 2 -2
BITMAP
80
80
80
80
80
80
ENDCHAR
STARTCHAR uni2578
ENCODING 9592
DWIDTH 6 0
BBX 3 2 0 2
BITMAP
E0
E0
ENDCHAR
STARTCHAR uni2579
ENCODING 9593
DWIDTH 6 0
BBX 2 5 2 3
BITMAP
C0
C0
C0
C0
C0
ENDCHAR
STARTCHAR uni257A
ENCODING 9594
DWIDTH 6 0
BBX 4 2 2 2
BITMAP
F0
F0
ENDCHAR
STARTCHAR uni257B
ENCODING 9595
DWIDTH 6 0
BBX 2 6 2 -2
BITMAP
C0
C0
C0
C0
C0
C0
ENDCHAR
STARTCHAR uni257C
ENCODING 9596
DWIDTH 6 0
BBX 6 2 0 2
BITMAP
FC
3C
ENDCHAR
STARTCHAR uni257D
ENCODING 9597
DWIDTH 6 0
BBX 2 10 2 -2
BITMAP
80
80
80
80
C0
C0
C0
C0
C0
C0
ENDCHAR
STARTCHAR uni257E
ENCODING 9598
DWIDTH 6 0
BBX 6 2 0 2
BITMAP
FC
E0
ENDCHAR
STARTCHAR uni257F
ENCODING 9599
DWIDTH 6 0
BBX 2 10 2 -2
BITMAP
C0
C0
C0
C0
C0
80
80
80
80
80
ENDCHAR
STARTCHAR block
ENCODING 9608
DWIDTH 6 0
BBX 6 10 0 -2
BITMAP
FC
FC
FC
FC
FC
FC
FC
FC
FC
FC
ENDCHAR
STARTCHAR ltshade
ENCODING 9617
DWIDTH 6 0
BBX 6 10 0 -2
BITMAP
90
48
24
90
48
24
90
48
24
90
ENDCHAR
STARTCHAR shade
ENCODING 9618
DWIDTH 6 0
BBX 6 10 0 -2
BITMAP
A8
54
A8
54
A8
14
E8
14
A8
54
ENDCHAR
STARTCHAR filledbox
ENCODING 9632
DWIDTH 6 0
BBX 6 5 0 -2
BITMAP
FC
FC
FC
FC
FC
ENDCHAR
STARTCHAR uni25B6
ENCODING 9654
DWIDTH 6 0
BBX 4 7 1 0
BITMAP
80
C0
E0
F0
E0
C0
80
ENDCHAR
STARTCHAR uni25C0
ENCODING 9664
DWIDTH 6 0
BBX 4 7 1 0
BITMAP
10
30
70
F0
70
30
10
ENDCHAR
STARTCHAR H18533
ENCODING 9679
DWIDTH 6 0
BBX 5 5 0 1
BITMAP
70
F8
F8
F8
70
ENDCHAR
STARTCHAR diamond
ENCODING 9830
DWIDTH 6 0
BBX 5 7 0 0
BITMAP
20
70
F8
F8
F8
70
20
ENDCHAR
STARTCHAR uni2714
ENCODING 10004
DWIDTH 6 0
BBX 5 6 1 0
BITMAP
08
10
10
20
A0
40
ENDCHAR
STARTCHAR uni271A
ENCODING 10010
DWIDTH 6 0
BBX 6 6 0 0
BITMAP
30
30
FC
FC
30
30
ENDCHAR
STARTCHAR .notdef
ENCODING -1
SWIDTH1 1066 0
DWIDTH1 11 0
BBX 5 9 1 0
BITMAP
F8
88
88
88
88
88
88
88
F8
ENDCHAR
STARTCHAR NameMe.238
ENCODING -1
DWIDTH 6 0
BBX 1 1 0 0
BITMAP
00
ENDCHAR
STARTCHAR NameMe.288
ENCODING -1
DWIDTH 6 0
BBX 1 1 0 0
BITMAP
00
ENDCHAR
ENDFONT
